<mxfile host="65bd71144e">
    <diagram id="lvYNfMGZBFFL79jg22rH" name="Page-1">
        <mxGraphModel dx="3278" dy="613" grid="0" gridSize="10" guides="1" tooltips="1" connect="1" arrows="1" fold="1" page="0" pageScale="1" pageWidth="850" pageHeight="1100" math="0" shadow="0">
            <root>
                <mxCell id="0"/>
                <mxCell id="1" parent="0"/>
                <mxCell id="2" value="Преподаватель" style="html=1;dashed=0;whiteSpace=wrap;fontSize=14;fontStyle=1" vertex="1" parent="1">
                    <mxGeometry x="-1950" y="300" width="190" height="430" as="geometry"/>
                </mxCell>
                <mxCell id="3" value="Модератор" style="html=1;dashed=0;whiteSpace=wrap;fontSize=14;fontStyle=1" vertex="1" parent="1">
                    <mxGeometry x="-970" y="300" width="160" height="430" as="geometry"/>
                </mxCell>
                <mxCell id="4" value="Сервис онборднга преподавателей" style="html=1;dashed=0;whiteSpace=wrap;fontSize=14;fontStyle=1" vertex="1" parent="1">
                    <mxGeometry x="-1490" y="300" width="220" height="430" as="geometry"/>
                </mxCell>
                <mxCell id="5" value="" style="endArrow=classic;html=1;rounded=0;exitX=1;exitY=0.25;exitDx=0;exitDy=0;edgeStyle=orthogonalEdgeStyle;entryX=-0.002;entryY=0.07;entryDx=0;entryDy=0;entryPerimeter=0;" edge="1" parent="1" target="4">
                    <mxGeometry width="50" height="50" relative="1" as="geometry">
                        <mxPoint x="-1760" y="330.02" as="sourcePoint"/>
                        <mxPoint x="-1540" y="330.52" as="targetPoint"/>
                        <Array as="points"/>
                    </mxGeometry>
                </mxCell>
                <mxCell id="6" value="Работа с карточки" style="edgeLabel;html=1;align=center;verticalAlign=middle;resizable=0;points=[];labelBackgroundColor=none;" vertex="1" connectable="0" parent="5">
                    <mxGeometry x="-0.3131" y="1" relative="1" as="geometry">
                        <mxPoint x="34" y="-9" as="offset"/>
                    </mxGeometry>
                </mxCell>
                <mxCell id="7" value="" style="endArrow=none;html=1;rounded=0;exitX=1;exitY=0.25;exitDx=0;exitDy=0;edgeStyle=orthogonalEdgeStyle;startFill=1;startArrow=classic;entryX=0;entryY=0.766;entryDx=0;entryDy=0;entryPerimeter=0;" edge="1" parent="1" target="4">
                    <mxGeometry width="50" height="50" relative="1" as="geometry">
                        <mxPoint x="-1760" y="630" as="sourcePoint"/>
                        <mxPoint x="-1540" y="630.5" as="targetPoint"/>
                        <Array as="points">
                            <mxPoint x="-1650" y="630"/>
                            <mxPoint x="-1490" y="631"/>
                        </Array>
                    </mxGeometry>
                </mxCell>
                <mxCell id="8" value="Список карточек" style="edgeLabel;html=1;align=center;verticalAlign=middle;resizable=0;points=[];" vertex="1" connectable="0" parent="7">
                    <mxGeometry x="-0.213" y="1" relative="1" as="geometry">
                        <mxPoint x="23" y="-1" as="offset"/>
                    </mxGeometry>
                </mxCell>
                <mxCell id="9" value="" style="endArrow=classic;html=1;rounded=0;exitX=0;exitY=0.07;exitDx=0;exitDy=0;exitPerimeter=0;entryX=1.002;entryY=0.071;entryDx=0;entryDy=0;entryPerimeter=0;" edge="1" parent="1" source="3" target="4">
                    <mxGeometry width="50" height="50" relative="1" as="geometry">
                        <mxPoint x="-1030" y="330" as="sourcePoint"/>
                        <mxPoint x="-1260" y="330" as="targetPoint"/>
                    </mxGeometry>
                </mxCell>
                <mxCell id="10" value="Вход в систему" style="edgeLabel;html=1;align=center;verticalAlign=middle;resizable=0;points=[];" vertex="1" connectable="0" parent="9">
                    <mxGeometry x="-0.06" relative="1" as="geometry">
                        <mxPoint x="-3" y="-10" as="offset"/>
                    </mxGeometry>
                </mxCell>
                <mxCell id="11" value="" style="endArrow=classic;html=1;rounded=0;exitX=-0.002;exitY=0.114;exitDx=0;exitDy=0;exitPerimeter=0;entryX=1.002;entryY=0.071;entryDx=0;entryDy=0;entryPerimeter=0;" edge="1" parent="1" source="3">
                    <mxGeometry width="50" height="50" relative="1" as="geometry">
                        <mxPoint x="-1000" y="350" as="sourcePoint"/>
                        <mxPoint x="-1270" y="351" as="targetPoint"/>
                    </mxGeometry>
                </mxCell>
                <mxCell id="12" value="Изменение карточек" style="edgeLabel;html=1;align=center;verticalAlign=middle;resizable=0;points=[];" vertex="1" connectable="0" parent="11">
                    <mxGeometry x="-0.06" relative="1" as="geometry">
                        <mxPoint x="-3" y="-10" as="offset"/>
                    </mxGeometry>
                </mxCell>
                <mxCell id="13" value="" style="endArrow=classic;html=1;rounded=0;exitX=1;exitY=0.25;exitDx=0;exitDy=0;edgeStyle=orthogonalEdgeStyle;entryX=-0.001;entryY=0.907;entryDx=0;entryDy=0;entryPerimeter=0;" edge="1" parent="1">
                    <mxGeometry width="50" height="50" relative="1" as="geometry">
                        <mxPoint x="-1270" y="670.02" as="sourcePoint"/>
                        <mxPoint x="-970" y="670" as="targetPoint"/>
                        <Array as="points"/>
                    </mxGeometry>
                </mxCell>
                <mxCell id="14" value="&lt;span style=&quot;background-color: rgb(255, 255, 255);&quot;&gt;Результат&amp;nbsp;&lt;/span&gt;&lt;span style=&quot;background-color: rgb(255, 255, 255); color: light-dark(rgb(0, 0, 0), rgb(255, 255, 255));&quot;&gt;выполнения действий&lt;/span&gt;" style="edgeLabel;html=1;align=center;verticalAlign=middle;resizable=0;points=[];labelBackgroundColor=none;" vertex="1" connectable="0" parent="13">
                    <mxGeometry x="-0.3131" y="1" relative="1" as="geometry">
                        <mxPoint x="37" as="offset"/>
                    </mxGeometry>
                </mxCell>
                <mxCell id="15" value="" style="endArrow=classic;html=1;rounded=0;exitX=1;exitY=0.25;exitDx=0;exitDy=0;edgeStyle=orthogonalEdgeStyle;entryX=-0.001;entryY=0.907;entryDx=0;entryDy=0;entryPerimeter=0;" edge="1" parent="1">
                    <mxGeometry width="50" height="50" relative="1" as="geometry">
                        <mxPoint x="-1270" y="650.02" as="sourcePoint"/>
                        <mxPoint x="-970" y="650" as="targetPoint"/>
                        <Array as="points"/>
                    </mxGeometry>
                </mxCell>
                <mxCell id="16" value="Список карточек" style="edgeLabel;html=1;align=center;verticalAlign=middle;resizable=0;points=[];" vertex="1" connectable="0" parent="15">
                    <mxGeometry x="0.0767" y="2" relative="1" as="geometry">
                        <mxPoint x="-25" y="2" as="offset"/>
                    </mxGeometry>
                </mxCell>
                <mxCell id="17" value="" style="endArrow=classic;html=1;rounded=0;exitX=1;exitY=0.25;exitDx=0;exitDy=0;edgeStyle=orthogonalEdgeStyle;entryX=-0.001;entryY=0.907;entryDx=0;entryDy=0;entryPerimeter=0;" edge="1" parent="1">
                    <mxGeometry width="50" height="50" relative="1" as="geometry">
                        <mxPoint x="-1270" y="630.02" as="sourcePoint"/>
                        <mxPoint x="-970" y="630" as="targetPoint"/>
                        <Array as="points"/>
                    </mxGeometry>
                </mxCell>
                <mxCell id="18" value="&lt;span style=&quot;background-color: rgb(255, 255, 255);&quot;&gt;Результат выполнения&lt;/span&gt;" style="edgeLabel;html=1;align=center;verticalAlign=middle;resizable=0;points=[];labelBackgroundColor=none;" vertex="1" connectable="0" parent="17">
                    <mxGeometry x="-0.3131" y="1" relative="1" as="geometry">
                        <mxPoint x="34" as="offset"/>
                    </mxGeometry>
                </mxCell>
                <mxCell id="19" value="КОНТЕКСТНАЯ ДИАГРАММА" style="swimlane;whiteSpace=wrap;html=1;align=center;" vertex="1" parent="1">
                    <mxGeometry x="-1990" y="250" width="1210" height="500" as="geometry"/>
                </mxCell>
                <mxCell id="20" value="2" style="text;html=1;align=center;verticalAlign=middle;resizable=0;points=[];autosize=1;strokeColor=none;fillColor=none;" vertex="1" parent="19">
                    <mxGeometry x="1155" y="52" width="25" height="26" as="geometry"/>
                </mxCell>
                <mxCell id="21" value="" style="endArrow=none;html=1;rounded=0;exitX=1;exitY=0.25;exitDx=0;exitDy=0;edgeStyle=orthogonalEdgeStyle;startFill=1;startArrow=classic;entryX=0;entryY=0.956;entryDx=0;entryDy=0;entryPerimeter=0;" edge="1" parent="19">
                    <mxGeometry width="50" height="50" relative="1" as="geometry">
                        <mxPoint x="230" y="406" as="sourcePoint"/>
                        <mxPoint x="499.9999999999998" y="407.0799999999999" as="targetPoint"/>
                        <Array as="points">
                            <mxPoint x="500" y="406"/>
                        </Array>
                    </mxGeometry>
                </mxCell>
                <mxCell id="22" value="Вывод информации" style="edgeLabel;html=1;align=center;verticalAlign=middle;resizable=0;points=[];" vertex="1" connectable="0" parent="21">
                    <mxGeometry x="-0.213" y="1" relative="1" as="geometry">
                        <mxPoint x="25" y="-1" as="offset"/>
                    </mxGeometry>
                </mxCell>
                <mxCell id="23" value="А0" style="rounded=0;whiteSpace=wrap;html=1;" vertex="1" parent="1">
                    <mxGeometry x="-1300" y="300" width="30" height="30" as="geometry"/>
                </mxCell>
                <mxCell id="24" value="DFD диаграмма 1 уровня" style="swimlane;whiteSpace=wrap;html=1;align=center;" vertex="1" parent="1">
                    <mxGeometry x="-1985" y="800" width="1210" height="588" as="geometry"/>
                </mxCell>
                <mxCell id="25" value="DB пользователей" style="shape=cylinder;whiteSpace=wrap;html=1;boundedLbl=1;backgroundOutline=1;" vertex="1" parent="24">
                    <mxGeometry x="610" y="40" width="110" height="80" as="geometry"/>
                </mxCell>
                <mxCell id="26" value="" style="endArrow=classic;html=1;rounded=0;exitX=0.25;exitY=0;exitDx=0;exitDy=0;entryX=0.409;entryY=1.015;entryDx=0;entryDy=0;entryPerimeter=0;" edge="1" parent="24" source="35" target="25">
                    <mxGeometry width="50" height="50" relative="1" as="geometry">
                        <mxPoint x="690" y="270" as="sourcePoint"/>
                        <mxPoint x="800" y="172" as="targetPoint"/>
                        <Array as="points">
                            <mxPoint x="655" y="172"/>
                        </Array>
                    </mxGeometry>
                </mxCell>
                <mxCell id="27" value="Логин, пароль" style="edgeLabel;html=1;align=center;verticalAlign=middle;resizable=0;points=[];" vertex="1" connectable="0" parent="26">
                    <mxGeometry x="-0.356" relative="1" as="geometry">
                        <mxPoint x="-25" y="43" as="offset"/>
                    </mxGeometry>
                </mxCell>
                <mxCell id="28" style="edgeStyle=orthogonalEdgeStyle;rounded=0;orthogonalLoop=1;jettySize=auto;html=1;exitX=0.005;exitY=0.337;exitDx=0;exitDy=0;exitPerimeter=0;" edge="1" parent="24" target="38">
                    <mxGeometry relative="1" as="geometry">
                        <mxPoint x="317.105" y="456.00000000000006" as="sourcePoint"/>
                        <mxPoint x="228" y="451" as="targetPoint"/>
                        <Array as="points">
                            <mxPoint x="317" y="458"/>
                        </Array>
                    </mxGeometry>
                </mxCell>
                <mxCell id="29" value="Вывод &lt;br&gt;подсказки" style="edgeLabel;html=1;align=center;verticalAlign=middle;resizable=0;points=[];" vertex="1" connectable="0" parent="28">
                    <mxGeometry x="0.2782" relative="1" as="geometry">
                        <mxPoint x="12" y="-1" as="offset"/>
                    </mxGeometry>
                </mxCell>
                <mxCell id="30" style="edgeStyle=orthogonalEdgeStyle;rounded=0;orthogonalLoop=1;jettySize=auto;html=1;entryX=1;entryY=1;entryDx=0;entryDy=0;" edge="1" parent="24" source="32" target="38">
                    <mxGeometry relative="1" as="geometry">
                        <Array as="points">
                            <mxPoint x="289" y="516"/>
                            <mxPoint x="289" y="516"/>
                        </Array>
                    </mxGeometry>
                </mxCell>
                <mxCell id="31" value="Выдать &lt;br&gt;информацию" style="edgeLabel;html=1;align=center;verticalAlign=middle;resizable=0;points=[];" vertex="1" connectable="0" parent="30">
                    <mxGeometry x="0.3608" y="1" relative="1" as="geometry">
                        <mxPoint x="16" y="2" as="offset"/>
                    </mxGeometry>
                </mxCell>
                <mxCell id="32" value="Подсистема &lt;br&gt;работа с карточками" style="html=1;dashed=0;whiteSpace=wrap;rounded=1;" vertex="1" parent="24">
                    <mxGeometry x="316" y="406" width="221" height="120" as="geometry"/>
                </mxCell>
                <mxCell id="33" style="edgeStyle=orthogonalEdgeStyle;rounded=0;orthogonalLoop=1;jettySize=auto;html=1;" edge="1" parent="24" source="35">
                    <mxGeometry relative="1" as="geometry">
                        <mxPoint x="933.25" y="402.625" as="targetPoint"/>
                    </mxGeometry>
                </mxCell>
                <mxCell id="34" value="Результат выполнения" style="edgeLabel;html=1;align=center;verticalAlign=middle;resizable=0;points=[];" vertex="1" connectable="0" parent="33">
                    <mxGeometry x="-0.603" relative="1" as="geometry">
                        <mxPoint x="88" as="offset"/>
                    </mxGeometry>
                </mxCell>
                <mxCell id="35" value="Вход в систему" style="html=1;dashed=0;whiteSpace=wrap;rounded=1;" vertex="1" parent="24">
                    <mxGeometry x="630" y="310" width="100" height="50" as="geometry"/>
                </mxCell>
                <mxCell id="36" value="" style="endArrow=classic;html=1;rounded=0;entryX=1;entryY=0.5;entryDx=0;entryDy=0;exitX=0;exitY=0;exitDx=0;exitDy=0;" edge="1" parent="24" source="41" target="35">
                    <mxGeometry width="50" height="50" relative="1" as="geometry">
                        <mxPoint x="870" y="410" as="sourcePoint"/>
                        <mxPoint x="600" y="410" as="targetPoint"/>
                    </mxGeometry>
                </mxCell>
                <mxCell id="37" value="Ввод логина/пароля" style="edgeLabel;html=1;align=center;verticalAlign=middle;resizable=0;points=[];rotation=15;" vertex="1" connectable="0" parent="36">
                    <mxGeometry x="-0.0355" y="-2" relative="1" as="geometry">
                        <mxPoint x="-21" y="-9" as="offset"/>
                    </mxGeometry>
                </mxCell>
                <mxCell id="38" value="&amp;nbsp; &amp;nbsp;1&amp;nbsp; &amp;nbsp; &amp;nbsp; &amp;nbsp;Преподаватель" style="html=1;dashed=0;whiteSpace=wrap;shape=mxgraph.dfd.dataStoreID;align=left;spacingLeft=3;points=[[0,0],[0.5,0],[1,0],[0,0.5],[1,0.5],[0,1],[0.5,1],[1,1]];" vertex="1" parent="24">
                    <mxGeometry x="34" y="416" width="171" height="100" as="geometry"/>
                </mxCell>
                <mxCell id="39" value="" style="edgeStyle=orthogonalEdgeStyle;rounded=0;orthogonalLoop=1;jettySize=auto;html=1;entryX=1;entryY=0.3;entryDx=0;entryDy=0;exitX=0.861;exitY=-0.005;exitDx=0;exitDy=0;exitPerimeter=0;" edge="1" parent="24" source="41" target="46">
                    <mxGeometry relative="1" as="geometry">
                        <Array as="points">
                            <mxPoint x="1013" y="190"/>
                            <mxPoint x="540" y="190"/>
                            <mxPoint x="540" y="184"/>
                        </Array>
                    </mxGeometry>
                </mxCell>
                <mxCell id="40" value="Новые&lt;br&gt;данные карточки" style="edgeLabel;html=1;align=center;verticalAlign=middle;resizable=0;points=[];" vertex="1" connectable="0" parent="39">
                    <mxGeometry x="0.2909" relative="1" as="geometry">
                        <mxPoint x="75" as="offset"/>
                    </mxGeometry>
                </mxCell>
                <mxCell id="41" value="&amp;nbsp; &amp;nbsp;2&amp;nbsp; &amp;nbsp; &amp;nbsp; Модератор" style="html=1;dashed=0;whiteSpace=wrap;shape=mxgraph.dfd.dataStoreID;align=left;spacingLeft=3;points=[[0,0],[0.5,0],[1,0],[0,0.5],[1,0.5],[0,1],[0.5,1],[1,1]];" vertex="1" parent="24">
                    <mxGeometry x="910" y="410" width="171" height="100" as="geometry"/>
                </mxCell>
                <mxCell id="42" style="edgeStyle=orthogonalEdgeStyle;rounded=0;orthogonalLoop=1;jettySize=auto;html=1;" edge="1" parent="24" source="46">
                    <mxGeometry relative="1" as="geometry">
                        <mxPoint x="338" y="407" as="targetPoint"/>
                        <Array as="points">
                            <mxPoint x="335" y="406"/>
                            <mxPoint x="338" y="406"/>
                        </Array>
                    </mxGeometry>
                </mxCell>
                <mxCell id="43" value="Список карточек" style="edgeLabel;html=1;align=center;verticalAlign=middle;resizable=0;points=[];" vertex="1" connectable="0" parent="42">
                    <mxGeometry x="0.5386" y="1" relative="1" as="geometry">
                        <mxPoint x="-32" y="-50" as="offset"/>
                    </mxGeometry>
                </mxCell>
                <mxCell id="44" style="edgeStyle=orthogonalEdgeStyle;rounded=0;orthogonalLoop=1;jettySize=auto;html=1;entryX=0.791;entryY=0.017;entryDx=0;entryDy=0;entryPerimeter=0;" edge="1" parent="24" source="46" target="41">
                    <mxGeometry relative="1" as="geometry">
                        <mxPoint x="1045" y="560" as="targetPoint"/>
                        <Array as="points">
                            <mxPoint x="335" y="142"/>
                            <mxPoint x="1046" y="142"/>
                            <mxPoint x="1046" y="408"/>
                            <mxPoint x="1045" y="408"/>
                        </Array>
                    </mxGeometry>
                </mxCell>
                <mxCell id="45" value="Результат выполнения действий" style="edgeLabel;html=1;align=center;verticalAlign=middle;resizable=0;points=[];" vertex="1" connectable="0" parent="44">
                    <mxGeometry x="0.0026" y="2" relative="1" as="geometry">
                        <mxPoint x="67" as="offset"/>
                    </mxGeometry>
                </mxCell>
                <mxCell id="46" value="DB карточек" style="shape=cylinder;whiteSpace=wrap;html=1;boundedLbl=1;backgroundOutline=1;" vertex="1" parent="24">
                    <mxGeometry x="280" y="160" width="110" height="80" as="geometry"/>
                </mxCell>
                <mxCell id="47" value="" style="endArrow=classic;html=1;rounded=0;entryX=0.758;entryY=0.985;entryDx=0;entryDy=0;entryPerimeter=0;exitX=0.199;exitY=-0.002;exitDx=0;exitDy=0;exitPerimeter=0;" edge="1" parent="24" source="32" target="46">
                    <mxGeometry width="50" height="50" relative="1" as="geometry">
                        <mxPoint x="323" y="403" as="sourcePoint"/>
                        <mxPoint x="326.8900000000001" y="240.07999999999993" as="targetPoint"/>
                        <Array as="points"/>
                    </mxGeometry>
                </mxCell>
                <mxCell id="48" value="Запрос списка&lt;br&gt;карточек" style="edgeLabel;html=1;align=center;verticalAlign=middle;resizable=0;points=[];" vertex="1" connectable="0" parent="47">
                    <mxGeometry x="-0.5655" y="1" relative="1" as="geometry">
                        <mxPoint x="21" y="-90" as="offset"/>
                    </mxGeometry>
                </mxCell>
                <mxCell id="49" value="" style="endArrow=classic;html=1;rounded=0;entryX=0.85;entryY=0.05;entryDx=0;entryDy=0;entryPerimeter=0;" edge="1" parent="24" target="46">
                    <mxGeometry width="50" height="50" relative="1" as="geometry">
                        <mxPoint x="1033" y="407" as="sourcePoint"/>
                        <mxPoint x="590" y="280" as="targetPoint"/>
                        <Array as="points">
                            <mxPoint x="1030" y="164"/>
                        </Array>
                    </mxGeometry>
                </mxCell>
                <mxCell id="50" value="Данные новой&lt;br&gt;карточки" style="edgeLabel;html=1;align=center;verticalAlign=middle;resizable=0;points=[];" vertex="1" connectable="0" parent="49">
                    <mxGeometry x="0.3532" relative="1" as="geometry">
                        <mxPoint x="41" y="-4" as="offset"/>
                    </mxGeometry>
                </mxCell>
                <mxCell id="51" value="" style="edgeStyle=orthogonalEdgeStyle;rounded=0;orthogonalLoop=1;jettySize=auto;html=1;entryX=1;entryY=0.5;entryDx=0;entryDy=0;exitX=0.743;exitY=-0.005;exitDx=0;exitDy=0;exitPerimeter=0;" edge="1" parent="24">
                    <mxGeometry relative="1" as="geometry">
                        <mxPoint x="999.1600000000003" y="410" as="sourcePoint"/>
                        <mxPoint x="390" y="200.5" as="targetPoint"/>
                        <Array as="points">
                            <mxPoint x="999" y="221"/>
                            <mxPoint x="530" y="221"/>
                            <mxPoint x="530" y="201"/>
                        </Array>
                    </mxGeometry>
                </mxCell>
                <mxCell id="52" value="Удаляемая карточка" style="edgeLabel;html=1;align=center;verticalAlign=middle;resizable=0;points=[];" vertex="1" connectable="0" parent="51">
                    <mxGeometry x="0.2909" relative="1" as="geometry">
                        <mxPoint x="190" as="offset"/>
                    </mxGeometry>
                </mxCell>
                <mxCell id="53" value="" style="endArrow=classic;html=1;rounded=0;exitX=1;exitY=0.7;exitDx=0;exitDy=0;entryX=0.359;entryY=-0.003;entryDx=0;entryDy=0;entryPerimeter=0;" edge="1" parent="24" source="46" target="41">
                    <mxGeometry width="50" height="50" relative="1" as="geometry">
                        <mxPoint x="610" y="380" as="sourcePoint"/>
                        <mxPoint x="660" y="330" as="targetPoint"/>
                        <Array as="points">
                            <mxPoint x="460" y="240"/>
                            <mxPoint x="970" y="240"/>
                        </Array>
                    </mxGeometry>
                </mxCell>
                <mxCell id="54" value="Список карточек" style="edgeLabel;html=1;align=center;verticalAlign=middle;resizable=0;points=[];" vertex="1" connectable="0" parent="53">
                    <mxGeometry x="-0.7507" y="3" relative="1" as="geometry">
                        <mxPoint x="50" y="3" as="offset"/>
                    </mxGeometry>
                </mxCell>
                <mxCell id="55" style="edgeStyle=orthogonalEdgeStyle;rounded=0;orthogonalLoop=1;jettySize=auto;html=1;entryX=-0.008;entryY=0.19;entryDx=0;entryDy=0;entryPerimeter=0;" edge="1" parent="24" source="38" target="32">
                    <mxGeometry relative="1" as="geometry">
                        <Array as="points">
                            <mxPoint x="221" y="429"/>
                            <mxPoint x="221" y="429"/>
                        </Array>
                    </mxGeometry>
                </mxCell>
                <mxCell id="56" value="Вызов&lt;br&gt;подсказки" style="edgeLabel;html=1;align=center;verticalAlign=middle;resizable=0;points=[];" vertex="1" connectable="0" parent="55">
                    <mxGeometry x="-0.2078" y="2" relative="1" as="geometry">
                        <mxPoint as="offset"/>
                    </mxGeometry>
                </mxCell>
                <mxCell id="57" style="edgeStyle=orthogonalEdgeStyle;rounded=0;orthogonalLoop=1;jettySize=auto;html=1;entryX=0.948;entryY=0.009;entryDx=0;entryDy=0;entryPerimeter=0;" edge="1" parent="24" source="32" target="38">
                    <mxGeometry relative="1" as="geometry">
                        <Array as="points">
                            <mxPoint x="261" y="409"/>
                            <mxPoint x="261" y="396"/>
                            <mxPoint x="196" y="396"/>
                        </Array>
                    </mxGeometry>
                </mxCell>
                <mxCell id="58" value="Список карточек" style="edgeLabel;html=1;align=center;verticalAlign=middle;resizable=0;points=[];" vertex="1" connectable="0" parent="57">
                    <mxGeometry x="0.4112" y="-1" relative="1" as="geometry">
                        <mxPoint x="-2" y="-8" as="offset"/>
                    </mxGeometry>
                </mxCell>
                <mxCell id="59" style="edgeStyle=orthogonalEdgeStyle;rounded=0;orthogonalLoop=1;jettySize=auto;html=1;entryX=0.003;entryY=0.71;entryDx=0;entryDy=0;entryPerimeter=0;" edge="1" parent="24" source="38" target="32">
                    <mxGeometry relative="1" as="geometry">
                        <Array as="points">
                            <mxPoint x="240" y="491"/>
                            <mxPoint x="240" y="491"/>
                        </Array>
                    </mxGeometry>
                </mxCell>
                <mxCell id="60" value="Получить&lt;br&gt;информацию" style="edgeLabel;html=1;align=center;verticalAlign=middle;resizable=0;points=[];" vertex="1" connectable="0" parent="59">
                    <mxGeometry x="-0.2793" relative="1" as="geometry">
                        <mxPoint as="offset"/>
                    </mxGeometry>
                </mxCell>
                <mxCell id="61" style="edgeStyle=orthogonalEdgeStyle;rounded=0;orthogonalLoop=1;jettySize=auto;html=1;entryX=0.878;entryY=0.997;entryDx=0;entryDy=0;entryPerimeter=0;" edge="1" parent="24" source="32" target="38">
                    <mxGeometry relative="1" as="geometry">
                        <Array as="points">
                            <mxPoint x="335" y="546"/>
                            <mxPoint x="184" y="546"/>
                        </Array>
                    </mxGeometry>
                </mxCell>
                <mxCell id="62" value="Переадресация&lt;br&gt;на внешний сайт" style="edgeLabel;html=1;align=center;verticalAlign=middle;resizable=0;points=[];" vertex="1" connectable="0" parent="61">
                    <mxGeometry x="-0.2616" y="2" relative="1" as="geometry">
                        <mxPoint x="-25" y="2" as="offset"/>
                    </mxGeometry>
                </mxCell>
                <mxCell id="63" value="Подсистема &lt;br&gt;изменение карточек" style="rounded=1;whiteSpace=wrap;html=1;" vertex="1" parent="24">
                    <mxGeometry x="566.5" y="399.5" width="227" height="133" as="geometry"/>
                </mxCell>
                <mxCell id="64" style="edgeStyle=orthogonalEdgeStyle;rounded=0;orthogonalLoop=1;jettySize=auto;html=1;entryX=1.003;entryY=0.217;entryDx=0;entryDy=0;entryPerimeter=0;startArrow=classic;startFill=1;" edge="1" parent="24" source="41" target="63">
                    <mxGeometry relative="1" as="geometry">
                        <Array as="points">
                            <mxPoint x="872" y="428"/>
                        </Array>
                    </mxGeometry>
                </mxCell>
                <mxCell id="65" value="Данные&amp;nbsp;&lt;br&gt;карточки&amp;nbsp;" style="edgeLabel;html=1;align=center;verticalAlign=middle;resizable=0;points=[];" vertex="1" connectable="0" parent="64">
                    <mxGeometry x="0.0097" y="-1" relative="1" as="geometry">
                        <mxPoint as="offset"/>
                    </mxGeometry>
                </mxCell>
                <mxCell id="66" style="edgeStyle=orthogonalEdgeStyle;rounded=0;orthogonalLoop=1;jettySize=auto;html=1;entryX=0.351;entryY=-0.035;entryDx=0;entryDy=0;entryPerimeter=0;" edge="1" parent="24" source="25" target="35">
                    <mxGeometry relative="1" as="geometry"/>
                </mxCell>
                <mxCell id="67" value="Результат &lt;br&gt;выполнения&amp;nbsp;" style="edgeLabel;html=1;align=center;verticalAlign=middle;resizable=0;points=[];" vertex="1" connectable="0" parent="66">
                    <mxGeometry x="0.5315" relative="1" as="geometry">
                        <mxPoint x="29" y="2" as="offset"/>
                    </mxGeometry>
                </mxCell>
                <mxCell id="68" style="edgeStyle=orthogonalEdgeStyle;rounded=0;orthogonalLoop=1;jettySize=auto;html=1;entryX=-0.006;entryY=0.555;entryDx=0;entryDy=0;entryPerimeter=0;exitX=1;exitY=0.5;exitDx=0;exitDy=0;" edge="1" parent="24" source="63" target="41">
                    <mxGeometry relative="1" as="geometry">
                        <Array as="points">
                            <mxPoint x="792" y="466"/>
                        </Array>
                    </mxGeometry>
                </mxCell>
                <mxCell id="69" value="Результат&lt;br&gt;выполнения действий" style="edgeLabel;html=1;align=center;verticalAlign=middle;resizable=0;points=[];" vertex="1" connectable="0" parent="68">
                    <mxGeometry x="0.2926" y="1" relative="1" as="geometry">
                        <mxPoint x="-15" y="17" as="offset"/>
                    </mxGeometry>
                </mxCell>
                <mxCell id="70" value="1" style="text;html=1;align=center;verticalAlign=middle;resizable=0;points=[];autosize=1;strokeColor=none;fillColor=none;" vertex="1" parent="1">
                    <mxGeometry x="-1950" y="300" width="25" height="26" as="geometry"/>
                </mxCell>
                <mxCell id="71" value="Подсистема&amp;nbsp;&lt;span style=&quot;font-weight: 400;&quot;&gt;Работа с карточками&lt;/span&gt;" style="swimlane;whiteSpace=wrap;html=1;align=center;" vertex="1" parent="1">
                    <mxGeometry x="-1983" y="1404" width="683" height="588" as="geometry"/>
                </mxCell>
                <mxCell id="72" style="edgeStyle=orthogonalEdgeStyle;rounded=0;orthogonalLoop=1;jettySize=auto;html=1;entryX=0;entryY=0.5;entryDx=0;entryDy=0;" edge="1" parent="71" source="80" target="88">
                    <mxGeometry relative="1" as="geometry"/>
                </mxCell>
                <mxCell id="73" value="Вывод&lt;br&gt;карточек" style="edgeLabel;html=1;align=center;verticalAlign=middle;resizable=0;points=[];" vertex="1" connectable="0" parent="72">
                    <mxGeometry x="-0.1582" y="-2" relative="1" as="geometry">
                        <mxPoint as="offset"/>
                    </mxGeometry>
                </mxCell>
                <mxCell id="74" style="edgeStyle=orthogonalEdgeStyle;rounded=0;orthogonalLoop=1;jettySize=auto;html=1;entryX=0.25;entryY=1;entryDx=0;entryDy=0;" edge="1" parent="71" source="80" target="93">
                    <mxGeometry relative="1" as="geometry">
                        <Array as="points">
                            <mxPoint x="96" y="367"/>
                            <mxPoint x="96" y="367"/>
                        </Array>
                    </mxGeometry>
                </mxCell>
                <mxCell id="75" value="Вызов подсказки" style="edgeLabel;html=1;align=center;verticalAlign=middle;resizable=0;points=[];" vertex="1" connectable="0" parent="74">
                    <mxGeometry x="0.6989" y="1" relative="1" as="geometry">
                        <mxPoint as="offset"/>
                    </mxGeometry>
                </mxCell>
                <mxCell id="76" style="edgeStyle=orthogonalEdgeStyle;rounded=0;orthogonalLoop=1;jettySize=auto;html=1;entryX=0.25;entryY=1;entryDx=0;entryDy=0;" edge="1" parent="71" source="80" target="98">
                    <mxGeometry relative="1" as="geometry">
                        <Array as="points">
                            <mxPoint x="120" y="531"/>
                            <mxPoint x="523" y="531"/>
                        </Array>
                    </mxGeometry>
                </mxCell>
                <mxCell id="77" value="вывод &lt;br&gt;информации" style="edgeLabel;html=1;align=center;verticalAlign=middle;resizable=0;points=[];" vertex="1" connectable="0" parent="76">
                    <mxGeometry x="0.8489" relative="1" as="geometry">
                        <mxPoint as="offset"/>
                    </mxGeometry>
                </mxCell>
                <mxCell id="78" style="edgeStyle=orthogonalEdgeStyle;rounded=0;orthogonalLoop=1;jettySize=auto;html=1;entryX=0;entryY=0.25;entryDx=0;entryDy=0;" edge="1" parent="71" source="80" target="103">
                    <mxGeometry relative="1" as="geometry">
                        <Array as="points">
                            <mxPoint x="27" y="466"/>
                            <mxPoint x="27" y="63"/>
                        </Array>
                    </mxGeometry>
                </mxCell>
                <mxCell id="79" value="Получение доступа&lt;br&gt;к внешней информации" style="edgeLabel;html=1;align=center;verticalAlign=middle;resizable=0;points=[];" vertex="1" connectable="0" parent="78">
                    <mxGeometry x="0.7969" y="-2" relative="1" as="geometry">
                        <mxPoint x="-12" y="-1" as="offset"/>
                    </mxGeometry>
                </mxCell>
                <mxCell id="80" value="&amp;nbsp; &amp;nbsp;1&amp;nbsp; &amp;nbsp; &amp;nbsp; &amp;nbsp;Преподаватель" style="html=1;dashed=0;whiteSpace=wrap;shape=mxgraph.dfd.dataStoreID;align=left;spacingLeft=3;points=[[0,0],[0.5,0],[1,0],[0,0.5],[1,0.5],[0,1],[0.5,1],[1,1]];" vertex="1" parent="71">
                    <mxGeometry x="34" y="416" width="171" height="100" as="geometry"/>
                </mxCell>
                <mxCell id="81" style="edgeStyle=orthogonalEdgeStyle;rounded=0;orthogonalLoop=1;jettySize=auto;html=1;entryX=1;entryY=0.5;entryDx=0;entryDy=0;" edge="1" parent="71">
                    <mxGeometry relative="1" as="geometry">
                        <mxPoint x="280" y="196.03703703703695" as="sourcePoint"/>
                        <mxPoint x="186" y="196" as="targetPoint"/>
                        <Array as="points">
                            <mxPoint x="259" y="196"/>
                            <mxPoint x="259" y="196"/>
                        </Array>
                    </mxGeometry>
                </mxCell>
                <mxCell id="82" value="Результат&lt;br&gt;выполнения" style="edgeLabel;html=1;align=center;verticalAlign=middle;resizable=0;points=[];" vertex="1" connectable="0" parent="81">
                    <mxGeometry x="0.1993" y="2" relative="1" as="geometry">
                        <mxPoint x="9" y="2" as="offset"/>
                    </mxGeometry>
                </mxCell>
                <mxCell id="83" value="DB карточек" style="shape=cylinder;whiteSpace=wrap;html=1;boundedLbl=1;backgroundOutline=1;" vertex="1" parent="71">
                    <mxGeometry x="280" y="160" width="110" height="80" as="geometry"/>
                </mxCell>
                <mxCell id="84" style="edgeStyle=orthogonalEdgeStyle;rounded=0;orthogonalLoop=1;jettySize=auto;html=1;entryX=0.223;entryY=0.976;entryDx=0;entryDy=0;entryPerimeter=0;" edge="1" parent="71" source="88" target="83">
                    <mxGeometry relative="1" as="geometry">
                        <Array as="points">
                            <mxPoint x="305" y="338"/>
                            <mxPoint x="305" y="338"/>
                        </Array>
                    </mxGeometry>
                </mxCell>
                <mxCell id="85" value="Запрос на &lt;br&gt;получение карточек" style="edgeLabel;html=1;align=center;verticalAlign=middle;resizable=0;points=[];" vertex="1" connectable="0" parent="84">
                    <mxGeometry x="0.3513" y="-2" relative="1" as="geometry">
                        <mxPoint x="-26" y="-37" as="offset"/>
                    </mxGeometry>
                </mxCell>
                <mxCell id="86" style="edgeStyle=orthogonalEdgeStyle;rounded=0;orthogonalLoop=1;jettySize=auto;html=1;" edge="1" parent="71" source="88">
                    <mxGeometry relative="1" as="geometry">
                        <mxPoint x="205.08108108108104" y="435.21621621621625" as="targetPoint"/>
                        <Array as="points">
                            <mxPoint x="338" y="435"/>
                        </Array>
                    </mxGeometry>
                </mxCell>
                <mxCell id="87" value="Список &lt;br&gt;карточек" style="edgeLabel;html=1;align=center;verticalAlign=middle;resizable=0;points=[];" vertex="1" connectable="0" parent="86">
                    <mxGeometry x="0.4097" y="-2" relative="1" as="geometry">
                        <mxPoint as="offset"/>
                    </mxGeometry>
                </mxCell>
                <mxCell id="88" value="Вывод карточек" style="rounded=1;whiteSpace=wrap;html=1;" vertex="1" parent="71">
                    <mxGeometry x="278" y="436" width="120" height="60" as="geometry"/>
                </mxCell>
                <mxCell id="89" style="edgeStyle=orthogonalEdgeStyle;rounded=0;orthogonalLoop=1;jettySize=auto;html=1;entryX=0.473;entryY=-0.022;entryDx=0;entryDy=0;entryPerimeter=0;" edge="1" parent="71" source="83" target="88">
                    <mxGeometry relative="1" as="geometry"/>
                </mxCell>
                <mxCell id="90" value="Список карточек" style="edgeLabel;html=1;align=center;verticalAlign=middle;resizable=0;points=[];" vertex="1" connectable="0" parent="89">
                    <mxGeometry x="0.7907" y="1" relative="1" as="geometry">
                        <mxPoint y="-1" as="offset"/>
                    </mxGeometry>
                </mxCell>
                <mxCell id="91" style="edgeStyle=orthogonalEdgeStyle;rounded=0;orthogonalLoop=1;jettySize=auto;html=1;entryX=0;entryY=0.3;entryDx=0;entryDy=0;" edge="1" parent="71">
                    <mxGeometry relative="1" as="geometry">
                        <mxPoint x="186" y="168" as="sourcePoint"/>
                        <mxPoint x="280" y="168" as="targetPoint"/>
                    </mxGeometry>
                </mxCell>
                <mxCell id="92" value="Данные &lt;br&gt;подсказки" style="edgeLabel;html=1;align=center;verticalAlign=middle;resizable=0;points=[];" vertex="1" connectable="0" parent="91">
                    <mxGeometry x="-0.2309" relative="1" as="geometry">
                        <mxPoint as="offset"/>
                    </mxGeometry>
                </mxCell>
                <mxCell id="93" value="Посмотреть подсказку" style="rounded=1;whiteSpace=wrap;html=1;" vertex="1" parent="71">
                    <mxGeometry x="66" y="154" width="120" height="60" as="geometry"/>
                </mxCell>
                <mxCell id="94" style="edgeStyle=orthogonalEdgeStyle;rounded=0;orthogonalLoop=1;jettySize=auto;html=1;entryX=0.541;entryY=0.01;entryDx=0;entryDy=0;entryPerimeter=0;" edge="1" parent="71" source="93" target="80">
                    <mxGeometry relative="1" as="geometry"/>
                </mxCell>
                <mxCell id="95" value="Вывод подсказки" style="edgeLabel;html=1;align=center;verticalAlign=middle;resizable=0;points=[];" vertex="1" connectable="0" parent="94">
                    <mxGeometry x="0.7525" y="-1" relative="1" as="geometry">
                        <mxPoint as="offset"/>
                    </mxGeometry>
                </mxCell>
                <mxCell id="96" style="edgeStyle=orthogonalEdgeStyle;rounded=0;orthogonalLoop=1;jettySize=auto;html=1;entryX=1;entryY=0.3;entryDx=0;entryDy=0;" edge="1" parent="71" source="98" target="83">
                    <mxGeometry relative="1" as="geometry">
                        <Array as="points">
                            <mxPoint x="441" y="306"/>
                            <mxPoint x="441" y="184"/>
                        </Array>
                    </mxGeometry>
                </mxCell>
                <mxCell id="97" value="Данные&lt;br&gt;полей карточки" style="edgeLabel;html=1;align=center;verticalAlign=middle;resizable=0;points=[];" vertex="1" connectable="0" parent="96">
                    <mxGeometry x="0.7011" y="-1" relative="1" as="geometry">
                        <mxPoint x="40" y="23" as="offset"/>
                    </mxGeometry>
                </mxCell>
                <mxCell id="98" value="&lt;span style=&quot;font-family: Helvetica, &amp;quot;VP Default&amp;quot;; background-color: rgb(248, 249, 250);&quot;&gt;Просматривать информацию внутри карточек&lt;/span&gt;" style="rounded=1;whiteSpace=wrap;html=1;" vertex="1" parent="71">
                    <mxGeometry x="493" y="299" width="120" height="60" as="geometry"/>
                </mxCell>
                <mxCell id="99" style="edgeStyle=orthogonalEdgeStyle;rounded=0;orthogonalLoop=1;jettySize=auto;html=1;entryX=-0.005;entryY=0.442;entryDx=0;entryDy=0;entryPerimeter=0;" edge="1" parent="71" source="83" target="98">
                    <mxGeometry relative="1" as="geometry">
                        <Array as="points">
                            <mxPoint x="422" y="200"/>
                            <mxPoint x="422" y="326"/>
                        </Array>
                    </mxGeometry>
                </mxCell>
                <mxCell id="100" value="Вывод информации" style="edgeLabel;html=1;align=center;verticalAlign=middle;resizable=0;points=[];" vertex="1" connectable="0" parent="99">
                    <mxGeometry x="0.5445" y="3" relative="1" as="geometry">
                        <mxPoint x="-22" y="1" as="offset"/>
                    </mxGeometry>
                </mxCell>
                <mxCell id="101" style="edgeStyle=orthogonalEdgeStyle;rounded=0;orthogonalLoop=1;jettySize=auto;html=1;entryX=0.44;entryY=1.001;entryDx=0;entryDy=0;entryPerimeter=0;" edge="1" parent="71" source="98" target="80">
                    <mxGeometry relative="1" as="geometry">
                        <Array as="points">
                            <mxPoint x="567" y="536"/>
                            <mxPoint x="109" y="536"/>
                        </Array>
                    </mxGeometry>
                </mxCell>
                <mxCell id="102" value="Вывод информации" style="edgeLabel;html=1;align=center;verticalAlign=middle;resizable=0;points=[];" vertex="1" connectable="0" parent="101">
                    <mxGeometry x="0.8397" y="1" relative="1" as="geometry">
                        <mxPoint x="22" y="8" as="offset"/>
                    </mxGeometry>
                </mxCell>
                <mxCell id="103" value="&lt;span style=&quot;font-family: Helvetica, &amp;quot;VP Default&amp;quot;; background-color: rgb(248, 249, 250);&quot;&gt;Переходить по ссылкам внутри карточек&lt;/span&gt;" style="rounded=1;whiteSpace=wrap;html=1;" vertex="1" parent="71">
                    <mxGeometry x="278" y="48" width="120" height="60" as="geometry"/>
                </mxCell>
                <mxCell id="104" style="edgeStyle=orthogonalEdgeStyle;rounded=0;orthogonalLoop=1;jettySize=auto;html=1;entryX=0.372;entryY=0.027;entryDx=0;entryDy=0;entryPerimeter=0;" edge="1" parent="71" source="103" target="83">
                    <mxGeometry relative="1" as="geometry">
                        <Array as="points">
                            <mxPoint x="321" y="122"/>
                            <mxPoint x="321" y="122"/>
                        </Array>
                    </mxGeometry>
                </mxCell>
                <mxCell id="105" value="Данные&lt;br&gt;полей карточки" style="edgeLabel;html=1;align=center;verticalAlign=middle;resizable=0;points=[];" vertex="1" connectable="0" parent="104">
                    <mxGeometry x="-0.386" y="-1" relative="1" as="geometry">
                        <mxPoint x="-33" y="1" as="offset"/>
                    </mxGeometry>
                </mxCell>
                <mxCell id="106" style="edgeStyle=orthogonalEdgeStyle;rounded=0;orthogonalLoop=1;jettySize=auto;html=1;entryX=0.467;entryY=0.975;entryDx=0;entryDy=0;entryPerimeter=0;" edge="1" parent="71" source="83" target="103">
                    <mxGeometry relative="1" as="geometry"/>
                </mxCell>
                <mxCell id="107" value="Вывод &lt;br&gt;информации" style="edgeLabel;html=1;align=center;verticalAlign=middle;resizable=0;points=[];" vertex="1" connectable="0" parent="106">
                    <mxGeometry x="0.1514" y="-1" relative="1" as="geometry">
                        <mxPoint x="28" y="4" as="offset"/>
                    </mxGeometry>
                </mxCell>
                <mxCell id="108" style="edgeStyle=orthogonalEdgeStyle;rounded=0;orthogonalLoop=1;jettySize=auto;html=1;entryX=0.051;entryY=0.005;entryDx=0;entryDy=0;entryPerimeter=0;" edge="1" parent="71" source="103" target="80">
                    <mxGeometry relative="1" as="geometry">
                        <Array as="points">
                            <mxPoint x="43" y="90"/>
                        </Array>
                    </mxGeometry>
                </mxCell>
                <mxCell id="109" value="Переадресация&lt;br&gt;на внешний сайт" style="edgeLabel;html=1;align=center;verticalAlign=middle;resizable=0;points=[];" vertex="1" connectable="0" parent="108">
                    <mxGeometry x="-0.6809" y="1" relative="1" as="geometry">
                        <mxPoint x="-94" y="4" as="offset"/>
                    </mxGeometry>
                </mxCell>
                <mxCell id="110" value="Подсистема&amp;nbsp;&lt;span style=&quot;font-weight: 400;&quot;&gt;Изменение карточек&lt;/span&gt;" style="swimlane;whiteSpace=wrap;html=1;align=center;" vertex="1" parent="1">
                    <mxGeometry x="-1280" y="1404" width="837" height="592" as="geometry"/>
                </mxCell>
                <mxCell id="111" value="&amp;nbsp; &amp;nbsp;2&amp;nbsp; &amp;nbsp; &amp;nbsp; Модератор" style="html=1;dashed=0;whiteSpace=wrap;shape=mxgraph.dfd.dataStoreID;align=left;spacingLeft=3;points=[[0,0],[0.5,0],[1,0],[0,0.5],[1,0.5],[0,1],[0.5,1],[1,1]];" vertex="1" parent="110">
                    <mxGeometry x="30" y="433" width="234" height="100" as="geometry"/>
                </mxCell>
                <mxCell id="112" style="edgeStyle=orthogonalEdgeStyle;rounded=0;orthogonalLoop=1;jettySize=auto;html=1;" edge="1" parent="110" source="114">
                    <mxGeometry relative="1" as="geometry">
                        <mxPoint x="146.16666666666674" y="243.83333333333348" as="targetPoint"/>
                        <Array as="points">
                            <mxPoint x="146" y="178"/>
                        </Array>
                    </mxGeometry>
                </mxCell>
                <mxCell id="113" value="Результат &lt;br&gt;выполнения действий" style="edgeLabel;html=1;align=center;verticalAlign=middle;resizable=0;points=[];" vertex="1" connectable="0" parent="112">
                    <mxGeometry x="0.0194" y="1" relative="1" as="geometry">
                        <mxPoint x="33" y="-7" as="offset"/>
                    </mxGeometry>
                </mxCell>
                <mxCell id="114" value="DB карточек" style="shape=cylinder;whiteSpace=wrap;html=1;boundedLbl=1;backgroundOutline=1;" vertex="1" parent="110">
                    <mxGeometry x="286" y="158" width="110" height="80" as="geometry"/>
                </mxCell>
                <mxCell id="115" style="edgeStyle=orthogonalEdgeStyle;rounded=0;orthogonalLoop=1;jettySize=auto;html=1;" edge="1" parent="110">
                    <mxGeometry relative="1" as="geometry">
                        <mxPoint x="264.4000000000001" y="494" as="targetPoint"/>
                        <mxPoint x="364" y="494.02" as="sourcePoint"/>
                    </mxGeometry>
                </mxCell>
                <mxCell id="116" value="Список&amp;nbsp;&lt;br&gt;карточек" style="edgeLabel;html=1;align=center;verticalAlign=middle;resizable=0;points=[];" vertex="1" connectable="0" parent="115">
                    <mxGeometry x="0.2009" y="-1" relative="1" as="geometry">
                        <mxPoint as="offset"/>
                    </mxGeometry>
                </mxCell>
                <mxCell id="117" style="edgeStyle=orthogonalEdgeStyle;rounded=0;orthogonalLoop=1;jettySize=auto;html=1;entryX=0;entryY=0.75;entryDx=0;entryDy=0;" edge="1" parent="110" source="119" target="124">
                    <mxGeometry relative="1" as="geometry">
                        <Array as="points">
                            <mxPoint x="437" y="431"/>
                        </Array>
                    </mxGeometry>
                </mxCell>
                <mxCell id="118" value="Выбранная&lt;br&gt;карточка" style="edgeLabel;html=1;align=center;verticalAlign=middle;resizable=0;points=[];" vertex="1" connectable="0" parent="117">
                    <mxGeometry x="0.6265" y="1" relative="1" as="geometry">
                        <mxPoint as="offset"/>
                    </mxGeometry>
                </mxCell>
                <mxCell id="119" value="Выбрать карточку&lt;br&gt;из списка" style="rounded=1;whiteSpace=wrap;html=1;" vertex="1" parent="110">
                    <mxGeometry x="364" y="444" width="145" height="71" as="geometry"/>
                </mxCell>
                <mxCell id="120" style="edgeStyle=orthogonalEdgeStyle;rounded=0;orthogonalLoop=1;jettySize=auto;html=1;entryX=-0.006;entryY=0.336;entryDx=0;entryDy=0;entryPerimeter=0;" edge="1" parent="110">
                    <mxGeometry relative="1" as="geometry">
                        <mxPoint x="264" y="455.06000000000006" as="sourcePoint"/>
                        <mxPoint x="363.1299999999999" y="454.9960000000002" as="targetPoint"/>
                        <Array as="points">
                            <mxPoint x="285" y="455.14"/>
                        </Array>
                    </mxGeometry>
                </mxCell>
                <mxCell id="121" value="Выбранная &lt;br&gt;карточка" style="edgeLabel;html=1;align=center;verticalAlign=middle;resizable=0;points=[];" vertex="1" connectable="0" parent="120">
                    <mxGeometry x="0.0452" y="-3" relative="1" as="geometry">
                        <mxPoint as="offset"/>
                    </mxGeometry>
                </mxCell>
                <mxCell id="122" style="edgeStyle=orthogonalEdgeStyle;rounded=0;orthogonalLoop=1;jettySize=auto;html=1;entryX=0.394;entryY=-0.026;entryDx=0;entryDy=0;entryPerimeter=0;" edge="1" parent="110" source="114" target="119">
                    <mxGeometry relative="1" as="geometry">
                        <Array as="points">
                            <mxPoint x="421" y="198"/>
                        </Array>
                    </mxGeometry>
                </mxCell>
                <mxCell id="123" value="Список карточек" style="edgeLabel;html=1;align=center;verticalAlign=middle;resizable=0;points=[];" vertex="1" connectable="0" parent="122">
                    <mxGeometry x="0.802" y="-2" relative="1" as="geometry">
                        <mxPoint as="offset"/>
                    </mxGeometry>
                </mxCell>
                <mxCell id="124" value="&lt;span style=&quot;font-family: Helvetica, &amp;quot;VP Default&amp;quot;; text-wrap-mode: nowrap; background-color: rgb(248, 249, 250);&quot;&gt;Удалить&lt;/span&gt;&lt;br style=&quot;box-sizing: content-box; -webkit-font-smoothing: antialiased; scrollbar-width: thin; padding: 0px; margin: 0px; font-family: Helvetica, &amp;quot;VP Default&amp;quot;; text-wrap-mode: nowrap; background-color: rgb(248, 249, 250);&quot;&gt;&lt;span style=&quot;font-family: Helvetica, &amp;quot;VP Default&amp;quot;; text-wrap-mode: nowrap; background-color: rgb(248, 249, 250);&quot;&gt;карточку&lt;/span&gt;" style="rounded=1;whiteSpace=wrap;html=1;" vertex="1" parent="110">
                    <mxGeometry x="685" y="386" width="120" height="60" as="geometry"/>
                </mxCell>
                <mxCell id="125" style="edgeStyle=orthogonalEdgeStyle;rounded=0;orthogonalLoop=1;jettySize=auto;html=1;entryX=0.577;entryY=0.01;entryDx=0;entryDy=0;entryPerimeter=0;" edge="1" parent="110" source="124" target="114">
                    <mxGeometry relative="1" as="geometry">
                        <Array as="points">
                            <mxPoint x="700" y="99"/>
                            <mxPoint x="350" y="99"/>
                        </Array>
                    </mxGeometry>
                </mxCell>
                <mxCell id="126" value="Удаляемая карточка" style="edgeLabel;html=1;align=center;verticalAlign=middle;resizable=0;points=[];" vertex="1" connectable="0" parent="125">
                    <mxGeometry x="0.74" y="-1" relative="1" as="geometry">
                        <mxPoint x="36" as="offset"/>
                    </mxGeometry>
                </mxCell>
                <mxCell id="127" style="edgeStyle=orthogonalEdgeStyle;rounded=0;orthogonalLoop=1;jettySize=auto;html=1;entryX=0.364;entryY=0.019;entryDx=0;entryDy=0;entryPerimeter=0;" edge="1" parent="110" source="114" target="124">
                    <mxGeometry relative="1" as="geometry">
                        <Array as="points">
                            <mxPoint x="341" y="71"/>
                            <mxPoint x="729" y="71"/>
                        </Array>
                    </mxGeometry>
                </mxCell>
                <mxCell id="128" value="Результат&lt;br&gt;удаления" style="edgeLabel;html=1;align=center;verticalAlign=middle;resizable=0;points=[];" vertex="1" connectable="0" parent="127">
                    <mxGeometry x="0.8905" y="-2" relative="1" as="geometry">
                        <mxPoint as="offset"/>
                    </mxGeometry>
                </mxCell>
                <mxCell id="129" style="edgeStyle=orthogonalEdgeStyle;rounded=0;orthogonalLoop=1;jettySize=auto;html=1;entryX=0.764;entryY=1;entryDx=0;entryDy=0;entryPerimeter=0;" edge="1" parent="110" source="124" target="111">
                    <mxGeometry relative="1" as="geometry">
                        <Array as="points">
                            <mxPoint x="745" y="571"/>
                            <mxPoint x="209" y="571"/>
                        </Array>
                    </mxGeometry>
                </mxCell>
                <mxCell id="130" value="Результат&lt;br&gt;выполнения действий" style="edgeLabel;html=1;align=center;verticalAlign=middle;resizable=0;points=[];" vertex="1" connectable="0" parent="129">
                    <mxGeometry x="0.7368" y="-1" relative="1" as="geometry">
                        <mxPoint x="55" y="5" as="offset"/>
                    </mxGeometry>
                </mxCell>
                <mxCell id="131" style="edgeStyle=orthogonalEdgeStyle;rounded=0;orthogonalLoop=1;jettySize=auto;html=1;entryX=0;entryY=0.5;entryDx=0;entryDy=0;" edge="1" parent="1" source="133" target="114">
                    <mxGeometry relative="1" as="geometry">
                        <Array as="points">
                            <mxPoint x="-1108" y="1608"/>
                        </Array>
                    </mxGeometry>
                </mxCell>
                <mxCell id="132" value="Данные &lt;br&gt;новой карточки" style="edgeLabel;html=1;align=center;verticalAlign=middle;resizable=0;points=[];" vertex="1" connectable="0" parent="131">
                    <mxGeometry x="0.2176" y="1" relative="1" as="geometry">
                        <mxPoint x="-1" y="9" as="offset"/>
                    </mxGeometry>
                </mxCell>
                <mxCell id="133" value="Добавить карточку" style="rounded=1;whiteSpace=wrap;html=1;" vertex="1" parent="1">
                    <mxGeometry x="-1203" y="1659" width="120" height="60" as="geometry"/>
                </mxCell>
                <mxCell id="134" style="edgeStyle=orthogonalEdgeStyle;rounded=0;orthogonalLoop=1;jettySize=auto;html=1;entryX=0.551;entryY=1.011;entryDx=0;entryDy=0;entryPerimeter=0;" edge="1" parent="1" source="111" target="133">
                    <mxGeometry relative="1" as="geometry"/>
                </mxCell>
                <mxCell id="135" value="Данные&amp;nbsp;&lt;br&gt;новой карточки" style="edgeLabel;html=1;align=center;verticalAlign=middle;resizable=0;points=[];" vertex="1" connectable="0" parent="134">
                    <mxGeometry x="0.2622" y="1" relative="1" as="geometry">
                        <mxPoint as="offset"/>
                    </mxGeometry>
                </mxCell>
                <mxCell id="136" style="edgeStyle=orthogonalEdgeStyle;rounded=0;orthogonalLoop=1;jettySize=auto;html=1;entryX=0.233;entryY=0;entryDx=0;entryDy=0;entryPerimeter=0;" edge="1" parent="1" source="133" target="111">
                    <mxGeometry relative="1" as="geometry">
                        <Array as="points">
                            <mxPoint x="-1198" y="1781"/>
                        </Array>
                    </mxGeometry>
                </mxCell>
                <mxCell id="137" value="Результат&lt;br&gt;выполнения действий" style="edgeLabel;html=1;align=center;verticalAlign=middle;resizable=0;points=[];" vertex="1" connectable="0" parent="136">
                    <mxGeometry x="0.3145" relative="1" as="geometry">
                        <mxPoint as="offset"/>
                    </mxGeometry>
                </mxCell>
                <mxCell id="138" value="&lt;span style=&quot;font-family: Helvetica, &amp;quot;VP Default&amp;quot;; text-wrap-mode: nowrap; background-color: rgb(248, 249, 250);&quot;&gt;Редактировать&lt;/span&gt;&lt;br style=&quot;box-sizing: content-box; -webkit-font-smoothing: antialiased; scrollbar-width: thin; padding: 0px; margin: 0px; font-family: Helvetica, &amp;quot;VP Default&amp;quot;; text-wrap-mode: nowrap; background-color: rgb(248, 249, 250);&quot;&gt;&lt;span style=&quot;font-family: Helvetica, &amp;quot;VP Default&amp;quot;; text-wrap-mode: nowrap; background-color: rgb(248, 249, 250);&quot;&gt;карточку&lt;/span&gt;" style="rounded=1;whiteSpace=wrap;html=1;" vertex="1" parent="1">
                    <mxGeometry x="-766" y="1562" width="120" height="60" as="geometry"/>
                </mxCell>
                <mxCell id="139" style="edgeStyle=orthogonalEdgeStyle;rounded=0;orthogonalLoop=1;jettySize=auto;html=1;entryX=0;entryY=0.5;entryDx=0;entryDy=0;" edge="1" parent="1" source="119" target="138">
                    <mxGeometry relative="1" as="geometry">
                        <Array as="points">
                            <mxPoint x="-809" y="1592"/>
                        </Array>
                    </mxGeometry>
                </mxCell>
                <mxCell id="140" value="Выбранная&lt;br&gt;карточка" style="edgeLabel;html=1;align=center;verticalAlign=middle;resizable=0;points=[];" vertex="1" connectable="0" parent="139">
                    <mxGeometry x="0.482" y="2" relative="1" as="geometry">
                        <mxPoint as="offset"/>
                    </mxGeometry>
                </mxCell>
                <mxCell id="141" style="edgeStyle=orthogonalEdgeStyle;rounded=0;orthogonalLoop=1;jettySize=auto;html=1;entryX=0.208;entryY=0.975;entryDx=0;entryDy=0;entryPerimeter=0;" edge="1" parent="1" source="111" target="138">
                    <mxGeometry relative="1" as="geometry">
                        <Array as="points">
                            <mxPoint x="-1028" y="1956"/>
                            <mxPoint x="-741" y="1956"/>
                        </Array>
                    </mxGeometry>
                </mxCell>
                <mxCell id="142" value="Новые данные&amp;nbsp;&lt;br&gt;карточки" style="edgeLabel;html=1;align=center;verticalAlign=middle;resizable=0;points=[];" vertex="1" connectable="0" parent="141">
                    <mxGeometry x="0.8426" relative="1" as="geometry">
                        <mxPoint as="offset"/>
                    </mxGeometry>
                </mxCell>
                <mxCell id="143" style="edgeStyle=orthogonalEdgeStyle;rounded=0;orthogonalLoop=1;jettySize=auto;html=1;entryX=1.002;entryY=0.156;entryDx=0;entryDy=0;entryPerimeter=0;" edge="1" parent="1" source="138" target="114">
                    <mxGeometry relative="1" as="geometry">
                        <Array as="points">
                            <mxPoint x="-826" y="1580"/>
                        </Array>
                    </mxGeometry>
                </mxCell>
                <mxCell id="144" value="Новые данные&amp;nbsp;&lt;br&gt;карточки" style="edgeLabel;html=1;align=center;verticalAlign=middle;resizable=0;points=[];" vertex="1" connectable="0" parent="143">
                    <mxGeometry x="0.5869" y="-2" relative="1" as="geometry">
                        <mxPoint x="46" y="-8" as="offset"/>
                    </mxGeometry>
                </mxCell>
                <mxCell id="145" style="edgeStyle=orthogonalEdgeStyle;rounded=0;orthogonalLoop=1;jettySize=auto;html=1;entryX=0.5;entryY=0;entryDx=0;entryDy=0;" edge="1" parent="1" source="114" target="138">
                    <mxGeometry relative="1" as="geometry">
                        <Array as="points">
                            <mxPoint x="-901" y="1542"/>
                            <mxPoint x="-706" y="1542"/>
                        </Array>
                    </mxGeometry>
                </mxCell>
                <mxCell id="146" value="Новые данные&amp;nbsp;&lt;br&gt;карточки" style="edgeLabel;html=1;align=center;verticalAlign=middle;resizable=0;points=[];" vertex="1" connectable="0" parent="145">
                    <mxGeometry x="0.344" y="3" relative="1" as="geometry">
                        <mxPoint x="14" y="-3" as="offset"/>
                    </mxGeometry>
                </mxCell>
                <mxCell id="147" style="edgeStyle=orthogonalEdgeStyle;rounded=0;orthogonalLoop=1;jettySize=auto;html=1;entryX=0.842;entryY=0.992;entryDx=0;entryDy=0;entryPerimeter=0;" edge="1" parent="1" source="138" target="111">
                    <mxGeometry relative="1" as="geometry">
                        <Array as="points">
                            <mxPoint x="-701" y="1963"/>
                            <mxPoint x="-1056" y="1963"/>
                        </Array>
                    </mxGeometry>
                </mxCell>
                <mxCell id="148" value="Результат&lt;br&gt;выполнения действий" style="edgeLabel;html=1;align=center;verticalAlign=middle;resizable=0;points=[];" vertex="1" connectable="0" parent="147">
                    <mxGeometry x="0.8955" y="-1" relative="1" as="geometry">
                        <mxPoint x="357" y="-256" as="offset"/>
                    </mxGeometry>
                </mxCell>
                <mxCell id="149" style="edgeStyle=orthogonalEdgeStyle;rounded=0;orthogonalLoop=1;jettySize=auto;html=1;entryX=0.995;entryY=0.876;entryDx=0;entryDy=0;entryPerimeter=0;" edge="1" parent="1" source="4" target="2">
                    <mxGeometry relative="1" as="geometry">
                        <Array as="points">
                            <mxPoint x="-1625" y="677"/>
                        </Array>
                    </mxGeometry>
                </mxCell>
                <mxCell id="150" value="Переадресация на внешний сайт&amp;nbsp;" style="edgeLabel;html=1;align=center;verticalAlign=middle;resizable=0;points=[];" vertex="1" connectable="0" parent="149">
                    <mxGeometry x="0.2401" y="1" relative="1" as="geometry">
                        <mxPoint x="30" y="-1" as="offset"/>
                    </mxGeometry>
                </mxCell>
            </root>
        </mxGraphModel>
    </diagram>
</mxfile>